<svg width="15" height="22" viewBox="0 0 15 22" fill="none" xmlns="http://www.w3.org/2000/svg">
<path d="M14.3055 7.21178C13.658 5.88373 12.5458 5.13858 11.4714 4.41862C10.6695 3.88142 9.91176 3.37414 9.37613 2.64947L9.28003 2.52029C8.96338 2.09493 8.60577 1.61286 8.54906 1.20799C8.49234 0.798391 8.12055 0.506945 7.7141 0.530576C7.30135 0.558933 6.98155 0.900791 6.98155 1.31512V15.3518C6.32146 14.9516 5.50856 14.7059 4.61847 14.7059C2.44759 14.7059 0.680008 16.119 0.680008 17.8567C0.680008 19.5943 2.44759 21.0074 4.61847 21.0074C6.78935 21.0074 8.55693 19.5943 8.55693 17.8567V4.12088C9.17448 4.77624 9.89286 5.2583 10.5939 5.72777C11.5376 6.3595 12.4292 6.95657 12.8908 7.90338C13.1807 8.49414 13.3193 9.13848 13.2847 9.71192C13.198 11.1156 12.6687 12.5271 11.9046 13.3983C11.6163 13.7244 11.6478 14.2222 11.9755 14.509C12.3 14.7988 12.7979 14.7642 13.0862 14.4381C14.0724 13.318 14.7513 11.5441 14.8569 9.80959C14.9088 8.95416 14.7183 8.05619 14.3055 7.21178Z" fill="#FFA6B4"/>
</svg>
