<svg width="32" height="32" viewBox="0 0 32 32" fill="none" xmlns="http://www.w3.org/2000/svg">
<circle cx="16" cy="16" r="15.3108" stroke="#FFA6B4" stroke-width="1.37846"/>
<path d="M21.3055 11.2118C20.658 9.88373 19.5458 9.13858 18.4714 8.41862C17.6695 7.88142 16.9118 7.37414 16.3761 6.64947L16.28 6.52029C15.9634 6.09493 15.6058 5.61286 15.5491 5.20799C15.4923 4.79839 15.1206 4.50694 14.7141 4.53058C14.3014 4.55893 13.9815 4.90079 13.9815 5.31512V19.3518C13.3215 18.9516 12.5086 18.7059 11.6185 18.7059C9.44759 18.7059 7.68001 20.119 7.68001 21.8567C7.68001 23.5943 9.44759 25.0074 11.6185 25.0074C13.7893 25.0074 15.5569 23.5943 15.5569 21.8567V8.12088C16.1745 8.77624 16.8929 9.2583 17.5939 9.72777C18.5376 10.3595 19.4292 10.9566 19.8908 11.9034C20.1807 12.4941 20.3193 13.1385 20.2847 13.7119C20.198 15.1156 19.6687 16.5271 18.9046 17.3983C18.6163 17.7244 18.6478 18.2222 18.9755 18.509C19.3 18.7988 19.7979 18.7642 20.0862 18.4381C21.0724 17.318 21.7513 15.5441 21.8569 13.8096C21.9088 12.9542 21.7183 12.0562 21.3055 11.2118Z" fill="#FFA6B4"/>
</svg>
